<?xml version="1.0" encoding="UTF-8" standalone="no"?>
<!DOCTYPE svg PUBLIC "-//W3C//DTD SVG 1.1//EN" "http://www.w3.org/Graphics/SVG/1.1/DTD/svg11.dtd">
<svg enable-background="new 0 0 32 32" width="32" viewBox="0 0 32 32" height="32"
preserveAspectRatio="xMidYMid meet" xmlns="http://www.w3.org/2000/svg" xmlns:xlink="http://www.w3.org/1999/xlink">
<defs>
<linearGradient id="grad" x1="100%" y1="0%" x2="0%" y2="100%">
<stop offset="0%" style="stop-color:#fff;stop-opacity:1" />
<stop offset="30%" style="stop-color:#fff;stop-opacity:1" />
<stop offset="100%" style="stop-color:#989696;stop-opacity:1" />
</linearGradient>
</defs>
<path fill="url(#grad)" style="stroke:none" d="M 20.702023 0.0 C 21.547573 0.76446956 21.547573 0.76446956 21.547573 0.76446956 C 21.088892 0.0 21.088892 0.0 21.088892 0.0 z M 4.0 0.0 C 4.0 31.0 4.0 31.0 4.0 31.0 C 28.0 31.0 28.0 31.0 28.0 31.0 C 28.0 6.5981717 28.0 6.5981717 28.0 6.5981717 C 21.547573 0.76446956 21.547573 0.76446956 21.547573 0.76446956 C 21.555557 0.77777773 21.555557 0.77777773 21.555557 0.77777773 C 20.700003 0.0 20.700003 0.0 20.700003 0.0 z"/>
<rect fill="#000" x="0.5" y="13" height="13.5" width="31.5" ry="3" style="stroke:none"/>
<path transform="translate(4,0)" fill="#000" d="M 18.414,0 H 0 V 32 H 24 V 5.584 L 18.414,0 z M 17.998,2.413 21.586,6 H 17.998 V 2.413 z M 2,30 V 1.998 h 14 v 6.001 h 6 V 30 H 2 z"/>
<text x="16" y="24.5" style="fill:#FFF;font-family:Arial,sans-serif;font-size:13.5px;font-weight:bold;text-anchor:middle;">GPX</text>
</svg>

